<svg id="Layer_1" data-name="Layer 1" xmlns="http://www.w3.org/2000/svg" viewBox="0 0 149.8 184.17"><defs><style>.cls-1{fill:none;}.cls-1,.cls-2{stroke:#000;stroke-miterlimit:10;stroke-width:2px;}.cls-2{fill:#fff;}</style></defs><path class="cls-1" d="M125.8,294.56c-8.6,17.75-30.09,17.67-44.4,7.35a55.72,55.72,0,0,1-9.76-9.16" transform="translate(-52.1 -125.77)"/><path class="cls-1" d="M143.75,293c9.71,10.92,29.91,16.63,47,5.06A33.39,33.39,0,0,0,201,287.39" transform="translate(-52.1 -125.77)"/><ellipse class="cls-2" cx="93.33" cy="229.58" rx="35.83" ry="67.68" transform="translate(-99.75 -100.01) rotate(-12.55)"/><ellipse class="cls-2" cx="151.02" cy="228" rx="35.83" ry="67.68" transform="translate(-98.03 -87.52) rotate(-12.55)"/><ellipse cx="87.59" cy="255.25" rx="17.01" ry="25.21" transform="translate(-105.46 -100.65) rotate(-12.55)"/><ellipse cx="150.14" cy="253.13" rx="16.88" ry="25.02" transform="translate(-103.51 -87.11) rotate(-12.55)"/><path d="M53.9,134.79a45.82,45.82,0,0,1,14.61-3.52c6.59-.4,13-.09,19.17,2.48a23.78,23.78,0,0,1,4,2.07c1.5,1,3.76,3.45,2.14,5.22-2.22,2.41-5.82.32-7.89-1.1a49.25,49.25,0,0,0-9.16-5.18,40.63,40.63,0,0,0-23.12-2.23c-1.9.36-1.1,3.25.79,2.89A37.49,37.49,0,0,1,76.8,138a36.76,36.76,0,0,1,5.08,2.77,51.77,51.77,0,0,0,4.89,3.18c2.85,1.44,6.49,1.75,9-.57,2.76-2.56,1.59-6.34-.76-8.7a13.57,13.57,0,0,0-3.61-2.48,39.15,39.15,0,0,0-18.85-4.06,59,59,0,0,0-10.78,1,48.92,48.92,0,0,0-8.67,2.78c-1.76.72-1,3.62.8,2.9Z" transform="translate(-52.1 -125.77)"/><path d="M172.79,129.53a62.2,62.2,0,0,0-18.31-3.65c-7.87-.36-15.59.11-23,3a29.67,29.67,0,0,0-4.66,2.13c-2.61,1.58-5.41,4.74-4.11,8s5.59,4.18,8.72,3.54c4.11-.83,7.52-3.85,11.25-5.62a48.46,48.46,0,0,1,28.63-3.85c1.89.32,2.7-2.57.8-2.9a52.43,52.43,0,0,0-23.75,1.39,48.1,48.1,0,0,0-10.84,4.71c-3,1.77-6.29,4.33-9.93,3.21-1.23-.38-2.54-1.29-2.13-2.74a6.31,6.31,0,0,1,2.83-3.12,22.57,22.57,0,0,1,3.51-1.67,46.34,46.34,0,0,1,8.85-2.54,57.82,57.82,0,0,1,12-.59,60.85,60.85,0,0,1,10.44,1,63.58,63.58,0,0,1,8.85,2.59c1.83.64,2.61-2.26.8-2.9Z" transform="translate(-52.1 -125.77)"/></svg>