<?xml version="1.0" encoding="utf-8"?>
<!-- Generator: Adobe Illustrator 25.4.1, SVG Export Plug-In . SVG Version: 6.00 Build 0)  -->
<svg version="1.1" id="Layer_1" xmlns="http://www.w3.org/2000/svg" xmlns:xlink="http://www.w3.org/1999/xlink" x="0px" y="0px"
	 viewBox="0 0 248.52 251.45" style="enable-background:new 0 0 248.52 251.45;" xml:space="preserve">
<style type="text/css">
	.st0{fill:none;stroke:#000000;stroke-width:2;stroke-miterlimit:10;}
	.st1{fill:#FFFFFF;stroke:#000000;stroke-width:2;stroke-miterlimit:10;}
	.st2{display:none;}
</style>
<path class="st0" d="M117.82,189.07c-8.6,17.75-30.09,17.68-44.4,7.36c-3.63-2.62-6.86-5.76-9.76-9.17"/>
<path class="st0" d="M135.77,187.55c9.71,10.92,29.91,16.63,47.02,5.06c4.35-2.94,7.94-6.66,10.27-10.72"/>
<ellipse transform="matrix(0.9761 -0.2172 0.2172 0.9761 -24.9207 21.5066)" class="st1" cx="85.35" cy="124.1" rx="35.83" ry="67.68"/>
<ellipse transform="matrix(0.9761 -0.2172 0.2172 0.9761 -23.1989 34.0008)" class="st1" cx="143.04" cy="122.51" rx="35.83" ry="67.68"/>
<ellipse transform="matrix(0.9761 -0.2172 0.2172 0.9761 -30.6338 20.8713)" class="st2" cx="79.61" cy="149.76" rx="17.01" ry="25.21"/>
<ellipse transform="matrix(0.9761 -0.2172 0.2172 0.9761 -28.6788 34.4104)" class="st2" cx="142.16" cy="147.64" rx="16.88" ry="25.02"/>
<g>
	<g>
		<path d="M45.92,43.3c4.76-1.93,9.47-3.2,14.61-3.51c6.59-0.4,13.01-0.1,19.17,2.48c1.38,0.58,2.8,1.23,4.06,2.07
			c1.5,0.99,3.76,3.45,2.13,5.22c-2.21,2.41-5.82,0.32-7.89-1.1c-2.94-2.01-5.85-3.83-9.16-5.19c-7.3-2.99-15.39-3.73-23.12-2.23
			c-1.89,0.37-1.09,3.26,0.8,2.89c7.45-1.45,15.38-0.54,22.31,2.57c1.76,0.79,3.46,1.72,5.08,2.77c1.63,1.06,3.15,2.31,4.89,3.19
			c2.85,1.43,6.49,1.75,9-0.57c2.76-2.56,1.59-6.34-0.77-8.7c-1.07-1.07-2.27-1.79-3.61-2.48c-5.89-3.02-12.27-4.18-18.85-4.06
			c-3.61,0.06-7.24,0.26-10.78,0.98c-2.99,0.6-5.84,1.65-8.66,2.79C43.36,41.13,44.13,44.03,45.92,43.3L45.92,43.3z"/>
	</g>
</g>
<g>
	<g>
		<path d="M164.81,38.05c-5.99-2.12-11.94-3.37-18.31-3.66c-7.87-0.36-15.59,0.11-23,2.98c-1.57,0.61-3.21,1.25-4.66,2.13
			c-2.61,1.58-5.41,4.74-4.12,8c1.31,3.3,5.59,4.18,8.72,3.54c4.11-0.83,7.52-3.85,11.25-5.62c8.8-4.19,19.04-5.48,28.63-3.85
			c1.89,0.32,2.7-2.57,0.8-2.89c-7.9-1.34-16.06-0.91-23.75,1.38c-3.78,1.13-7.45,2.7-10.84,4.72c-2.96,1.76-6.29,4.32-9.94,3.2
			c-1.23-0.38-2.53-1.29-2.12-2.74c0.36-1.29,1.73-2.44,2.83-3.12c1.1-0.67,2.33-1.19,3.52-1.67c2.85-1.14,5.82-1.99,8.85-2.54
			c3.99-0.72,8.01-0.71,12.05-0.59c3.5,0.1,7,0.33,10.44,1.03c3.02,0.61,5.95,1.56,8.85,2.59
			C165.84,41.59,166.62,38.69,164.81,38.05L164.81,38.05z"/>
	</g>
</g>
<path class="st0" d="M52.89,141.43c0,0,28.8,17.26,59.96,5.18"/>
<path class="st0" d="M112.67,146.5c7.28,3.79,38.32,17.77,68.81-0.87"/>
<path class="st0" d="M76.66,141.81c10.83,1.98,22.12,1.47,32.65-1.8"/>
<path class="st0" d="M98.25,155.78c5.53-1.11,10.92-2.9,16-5.37"/>
<path class="st0" d="M140.85,146.86c9.88,0.98,19.98-0.18,29.33-3.55"/>
<path class="st0" d="M187.97,147.73c3.96,1.84,8.09,3.31,12.33,4.37"/>
<path class="st1" d="M115.86,148.03c-3.61,0-6.54-2.93-6.54-6.54c0-1.13,0.29-2.19,0.79-3.12"/>
<path class="st1" d="M55.75,142.06c-1.02,0-1.99-0.23-2.85-0.65c-2.19-1.06-3.7-3.3-3.7-5.89c0-1.36,0.41-2.61,1.12-3.66"/>
</svg>
